<svg xmlns="http://www.w3.org/2000/svg" width="1024" height="1024" viewBox="0 0 1024 1024">
<g transform="translate(512 512) scale(0.75) translate(-500 -483)">
  <ellipse cx="500" cy="840" rx="250" ry="26" fill="#000" opacity="0.18"/>
  <g fill="#f6f8fa" stroke="#f6f8fa">
  <ellipse cx="500" cy="560" rx="300" ry="262"/>
  <path d="M232 470 L258 168 L452 318 Z" stroke-linejoin="round" stroke-width="56"/>
  <path d="M768 470 L742 168 L548 318 Z" stroke-linejoin="round" stroke-width="56"/></g>
  <path d="M272 400 L286 252 L392 330 Z" fill="#d8c7ff" stroke="#d8c7ff" stroke-linejoin="round" stroke-width="24"/>
  <path d="M728 400 L714 252 L608 330 Z" fill="#d8c7ff" stroke="#d8c7ff" stroke-linejoin="round" stroke-width="24"/>
  <g stroke="#ffffff" stroke-width="18" stroke-linecap="round" fill="none">
    <path d="M210 628 L112 606"/><path d="M212 668 L118 684"/>
    <path d="M790 628 L888 606"/><path d="M788 668 L882 684"/>
  </g>
  <g stroke-linecap="round" fill="none">
    <path d="M276 528 L214 500" stroke="#0d1117" stroke-width="20"/>
    <path d="M724 528 L786 500" stroke="#0d1117" stroke-width="20"/>
    <path d="M468 528 Q500 500 532 528" stroke="#0d1117" stroke-width="22"/>
  </g>
  <circle cx="374" cy="542" r="98" fill="#0d1117" stroke="#f85149" stroke-width="28"/>
  <circle cx="626" cy="542" r="98" fill="#0d1117" stroke="#3fb950" stroke-width="28"/>
  <g stroke-linecap="round" stroke-width="30" fill="none">
    <path d="M330 542 L418 542" stroke="#f85149"/>
    <path d="M582 542 L670 542 M626 498 L626 586" stroke="#3fb950"/>
  </g>
  <path d="M478 656 L522 656 L500 682 Z" fill="#0d1117" stroke="#0d1117" stroke-width="14" stroke-linejoin="round"/>
  <path d="M456 708 Q478 734 500 708 Q522 734 544 708" stroke="#0d1117" stroke-width="14" stroke-linecap="round" fill="none"/>
</g>
</svg>
